<?xml version="1.0" standalone="no"?>
<!DOCTYPE svg PUBLIC "-//W3C//DTD SVG 20010904//EN"
 "http://www.w3.org/TR/2001/REC-SVG-20010904/DTD/svg10.dtd">
<svg version="1.0" xmlns="http://www.w3.org/2000/svg"
 width="161.000000pt" height="177.000000pt" viewBox="0 0 161.000000 177.000000"
 preserveAspectRatio="xMidYMid meet">

<g transform="translate(0.000000,177.000000) scale(0.100000,-0.100000)"
fill="#000000" stroke="none">
<path d="M530 1552 c-107 -53 -107 -211 0 -264 98 -50 210 21 210 132 0 81
-67 150 -145 150 -16 0 -46 -8 -65 -18z"/>
<path d="M198 1254 c-33 -17 -48 -43 -48 -81 0 -15 25 -159 54 -320 65 -347
79 -385 172 -472 101 -95 138 -105 372 -106 l194 0 24 28 c33 38 33 96 0 134
l-24 28 -184 5 c-198 5 -205 7 -265 72 -33 36 -40 61 -98 369 -29 158 -58 297
-64 308 -13 24 -61 51 -88 51 -10 -1 -30 -7 -45 -16z"/>
<path d="M612 1163 c-12 -2 -37 -19 -56 -37 -55 -51 -56 -83 -8 -274 46 -184
65 -220 142 -259 41 -21 58 -23 211 -23 121 0 169 -3 176 -12 6 -7 38 -87 72
-178 34 -90 69 -172 77 -181 30 -33 68 -33 171 2 115 38 143 61 143 118 0 57
-34 95 -86 95 -22 0 -53 -4 -70 -8 -31 -8 -32 -7 -53 50 -68 185 -75 199 -118
240 -58 57 -113 74 -239 74 l-102 0 -11 44 c-6 25 -11 47 -11 50 0 2 54 6 121
8 118 3 121 4 145 31 33 38 33 96 0 134 l-24 28 -149 3 -148 3 -17 29 c-29 52
-98 78 -166 63z"/>
</g>
</svg>
